<?xml version="1.0" encoding="UTF-8" standalone="no"?>
<!-- Created with Inkscape (http://www.inkscape.org/) -->

<svg
   xmlns:dc="http://purl.org/dc/elements/1.1/"
   xmlns:cc="http://creativecommons.org/ns#"
   xmlns:rdf="http://www.w3.org/1999/02/22-rdf-syntax-ns#"
   xmlns:svg="http://www.w3.org/2000/svg"
   xmlns="http://www.w3.org/2000/svg"
   xmlns:sodipodi="http://sodipodi.sourceforge.net/DTD/sodipodi-0.dtd"
   xmlns:inkscape="http://www.inkscape.org/namespaces/inkscape"
   id="svg2"
   version="1.1"
   inkscape:version="0.91 r13725"
   xml:space="preserve"
   width="447.68378"
   height="810"
   viewBox="0 0 447.68378 810"
   sodipodi:docname="publicdomainq-senior-man-thinking.svg"
   inkscape:export-filename="/media/sdb1/_GRAFIKA/Publicdomainq/lidi/publicdomainq-senior-man-thinking.png"
   inkscape:export-xdpi="88.984169"
   inkscape:export-ydpi="88.984169"><title
     id="title7771">Senior man - thinking</title><metadata
     id="metadata8"><rdf:RDF><cc:Work
         rdf:about=""><dc:format>image/svg+xml</dc:format><dc:type
           rdf:resource="http://purl.org/dc/dcmitype/StillImage" /><dc:title>Senior man - thinking</dc:title><cc:license
           rdf:resource="http://creativecommons.org/publicdomain/zero/1.0/" /><dc:subject><rdf:Bag><rdf:li>man</rdf:li><rdf:li>male</rdf:li><rdf:li>senior</rdf:li><rdf:li>old</rdf:li><rdf:li>think</rdf:li><rdf:li>thinking</rdf:li><rdf:li>brain</rdf:li><rdf:li>elderly</rdf:li><rdf:li>age</rdf:li><rdf:li>publicdomainq.net</rdf:li></rdf:Bag></dc:subject><dc:description>This image was adapted from a picture posted to publicdomainq.net. All of the images on these sites are in the public domain i.e. CC0. This site is only in Japanese but can be easily navigated with Google Translate.</dc:description></cc:Work><cc:License
         rdf:about="http://creativecommons.org/publicdomain/zero/1.0/"><cc:permits
           rdf:resource="http://creativecommons.org/ns#Reproduction" /><cc:permits
           rdf:resource="http://creativecommons.org/ns#Distribution" /><cc:permits
           rdf:resource="http://creativecommons.org/ns#DerivativeWorks" /></cc:License></rdf:RDF></metadata><defs
     id="defs6"><clipPath
       clipPathUnits="userSpaceOnUse"
       id="clipPath58"><path
         d="M 248.324,1461.59 C 126.266,1426.93 127.109,1220.15 127.109,1220.15 128.004,1110.01 139.297,920.891 208.629,851.066 277.488,781.75 343.082,748.82 400.598,733.75 c 0,0 71.066,-21.051 138.136,4.621 56.399,18.891 119.641,56.09 183.711,129.902 70.293,80.997 62.305,300.467 54.805,400.977 -2.207,29.79 -19.727,63.35 -27.156,71.62 -108.156,120.31 -110.422,196.84 -110.422,196.84 l -14.07,-18.1 c -25.891,-27.68 -74.395,-55.98 -164.289,-72.31 0,0 28.632,110.96 53.828,131.22 0,0 -108.278,-147.61 -291.328,-187.67 0,0 4.953,25.09 18.875,58.15 l 5.636,12.59 z"
         id="path60"
         inkscape:connector-curvature="0" /></clipPath><linearGradient
       x1="0"
       y1="0"
       x2="1"
       y2="0"
       gradientUnits="userSpaceOnUse"
       gradientTransform="matrix(-1.44e-5,329.108,329.108,1.44e-5,454.57,998.091)"
       spreadMethod="pad"
       id="linearGradient62"><stop
         style="stop-opacity:1;stop-color:#fcd0b4"
         offset="0"
         id="stop64" /><stop
         style="stop-opacity:1;stop-color:#f7918c"
         offset="1"
         id="stop66" /></linearGradient></defs><sodipodi:namedview
     pagecolor="#ffffff"
     bordercolor="#666666"
     borderopacity="1"
     objecttolerance="10"
     gridtolerance="10"
     guidetolerance="10"
     inkscape:pageopacity="0"
     inkscape:pageshadow="2"
     inkscape:window-width="1920"
     inkscape:window-height="1125"
     id="namedview4"
     showgrid="false"
     inkscape:zoom="0.77074335"
     inkscape:cx="57.491086"
     inkscape:cy="256.63725"
     inkscape:window-x="0"
     inkscape:window-y="0"
     inkscape:window-maximized="1"
     inkscape:current-layer="svg2"
     fit-margin-top="5"
     fit-margin-left="5"
     fit-margin-bottom="5"
     fit-margin-right="5" /><g
     id="g12"
     transform="matrix(0.52114059,0,0,-0.52114059,5.0044028,804.94847)"><path
       d="m 738.129,11.1602 4.59,30.0117 29.375,15.6172 c 34.043,68.0899 57.578,219.7889 60.644,321.0389 2.051,67.5 -25,112.5 -52.773,129.332 -61.895,37.524 -222.676,91.535 -222.676,91.535 l -206.242,-2.117 c 0,0 -156.582,-51.894 -218.481,-89.418 C 104.797,490.328 67.2852,448.059 79.793,377.828 87.0977,336.789 95.8477,304.18 106.047,270.949 l 36.25,-90 35.008,-168.1287 560.824,-1.6601"
       style="fill:#bfb290;fill-opacity:1;fill-rule:nonzero;stroke:none"
       id="path14"
       inkscape:connector-curvature="0" /><path
       d="m 176.465,9.48828 -34.168,172.71072 -26.25,69.383 c 32.242,-84.332 70.293,-131.66 95,-161.25 30,-35.9336 97.5,-70 131.25,-21.25 15.125,21.8477 29.09,57.348 41.219,96.27 l 88.773,-3.77 3.34,-58.762 c 0,0 164.16,-49.988 209.16,-56.238 33.75,-4.6914 53.215,-14.2109 57.93,-4.7929 L 738.949,7.83203 176.465,9.48828"
       style="fill:#a29776;fill-opacity:1;fill-rule:nonzero;stroke:none"
       id="path16"
       inkscape:connector-curvature="0" /><path
       d="m 412.09,138.66 c 26.254,-1.25 28.324,6.672 28.324,6.672 l 25,-2.5 -2.5,66.25 -25.625,2.5 -50.316,36.68 -21.758,-99.602 c 0,0 30.215,-9.211 46.875,-10"
       style="fill:#fcd0b4;fill-opacity:1;fill-rule:nonzero;stroke:none"
       id="path18"
       inkscape:connector-curvature="0" /><path
       d="m 208.434,246.539 c 0,0 -10.723,9.813 -4.219,14.25 16.863,11.492 90.375,11.621 90.375,11.621 l 3.34,-22.961"
       style="fill:#fcd0b4;fill-opacity:1;fill-rule:nonzero;stroke:none"
       id="path20"
       inkscape:connector-curvature="0" /><path
       d="m 208.434,246.539 c 0,0 -10.723,9.813 -4.219,14.25 16.863,11.492 90.375,11.621 90.375,11.621 l 3.34,-22.961"
       style="fill:none;stroke:#231f20;stroke-width:14;stroke-linecap:round;stroke-linejoin:round;stroke-miterlimit:10;stroke-dasharray:none;stroke-opacity:1"
       id="path22"
       inkscape:connector-curvature="0" /><path
       d="m 278.684,222.102 c 0,0 -33.133,-5.852 -51.422,-3.481 -18.242,2.367 -29.324,10.801 -23.059,22.399 3.863,7.152 86.652,16.171 86.652,16.171"
       style="fill:#fcd0b4;fill-opacity:1;fill-rule:nonzero;stroke:none"
       id="path24"
       inkscape:connector-curvature="0" /><path
       d="m 278.684,222.102 c 0,0 -33.133,-5.852 -51.422,-3.481 -18.242,2.367 -29.324,10.801 -23.059,22.399 3.863,7.152 86.652,16.171 86.652,16.171"
       style="fill:none;stroke:#231f20;stroke-width:14;stroke-linecap:round;stroke-linejoin:round;stroke-miterlimit:10;stroke-dasharray:none;stroke-opacity:1"
       id="path26"
       inkscape:connector-curvature="0" /><path
       d="m 288.711,197.941 c 0,0 -32.371,-9.16 -50.813,-8.632 -18.386,0.531 -30.253,7.8 -25.183,19.972 3.125,7.5 84.59,24.789 84.59,24.789"
       style="fill:#fcd0b4;fill-opacity:1;fill-rule:nonzero;stroke:none"
       id="path28"
       inkscape:connector-curvature="0" /><path
       d="m 288.711,197.941 c 0,0 -32.371,-9.16 -50.813,-8.632 -18.386,0.531 -30.253,7.8 -25.183,19.972 3.125,7.5 84.59,24.789 84.59,24.789"
       style="fill:none;stroke:#231f20;stroke-width:14;stroke-linecap:round;stroke-linejoin:round;stroke-miterlimit:10;stroke-dasharray:none;stroke-opacity:1"
       id="path30"
       inkscape:connector-curvature="0" /><path
       d="m 294.172,327.828 -24.375,-85.058 -24.387,-37.598 70.149,-2.461 35.906,88.328 -57.293,36.789"
       style="fill:#ffffff;fill-opacity:1;fill-rule:nonzero;stroke:none"
       id="path32"
       inkscape:connector-curvature="0" /><path
       d="m 466.039,209.082 c 0,0 -0.625,-50.633 0.625,-62.5 1.25,-11.883 8.125,-44.383 8.125,-44.383 l 73.125,-23.117 1.25,125 -83.125,5"
       style="fill:#bfb290;fill-opacity:1;fill-rule:nonzero;stroke:none"
       id="path34"
       inkscape:connector-curvature="0" /><path
       d="m 832.738,377.828 c 2.051,67.5 -25,112.5 -52.773,129.332 -61.895,37.524 -222.676,91.535 -222.676,91.535"
       style="fill:none;stroke:#231f20;stroke-width:14;stroke-linecap:round;stroke-linejoin:round;stroke-miterlimit:10;stroke-dasharray:none;stroke-opacity:1"
       id="path36"
       inkscape:connector-curvature="0" /><path
       d="M 142.922,181.582 176.465,8.66016"
       style="fill:#bf1b2c;fill-opacity:1;fill-rule:nonzero;stroke:none"
       id="path38"
       inkscape:connector-curvature="0" /><path
       d="M 142.922,181.582 176.465,8.66016"
       style="fill:none;stroke:#231f20;stroke-width:14;stroke-linecap:round;stroke-linejoin:round;stroke-miterlimit:10;stroke-dasharray:none;stroke-opacity:1"
       id="path40"
       inkscape:connector-curvature="0" /><path
       d="M 740.844,41.1719 736.469,7"
       style="fill:#bf1b2c;fill-opacity:1;fill-rule:nonzero;stroke:none"
       id="path42"
       inkscape:connector-curvature="0" /><path
       d="M 740.844,41.1719 736.469,7"
       style="fill:none;stroke:#231f20;stroke-width:14;stroke-linecap:round;stroke-linejoin:round;stroke-miterlimit:10;stroke-dasharray:none;stroke-opacity:1"
       id="path44"
       inkscape:connector-curvature="0" /><path
       d="m 556.469,200.32 c 0,0 90.832,25.828 118.332,73.328 l -15,-77.5 -103.332,4.172"
       style="fill:#a29776;fill-opacity:1;fill-rule:nonzero;stroke:none"
       id="path46"
       inkscape:connector-curvature="0" /><path
       d="m 557.289,598.695 c 0,0 160.781,-54.011 222.676,-91.535 27.773,-16.832 54.824,-61.832 52.773,-129.332 -3.066,-101.25 -26.277,-244.75 -57.519,-314.1561 -11.25,-25 -38.75,-24.1836 -90.43,-17.0899 -45,6.168 -206.445,49.5899 -206.445,49.5899 0,0 -16.875,67.4881 -14.375,114.1481 0,0 215,-15.832 237.5,-13.332"
       style="fill:none;stroke:#231f20;stroke-width:14;stroke-linecap:round;stroke-linejoin:round;stroke-miterlimit:10;stroke-dasharray:none;stroke-opacity:1"
       id="path48"
       inkscape:connector-curvature="0" /><path
       d="m 663.129,199.488 c 0,0 26.66,165.012 29.16,193.34"
       style="fill:none;stroke:#231f20;stroke-width:14;stroke-linecap:round;stroke-linejoin:round;stroke-miterlimit:10;stroke-dasharray:none;stroke-opacity:1"
       id="path50"
       inkscape:connector-curvature="0" /><path
       d="m 460.629,208.66 -23.32,4.16 -48.871,34.602"
       style="fill:none;stroke:#231f20;stroke-width:14;stroke-linecap:round;stroke-linejoin:round;stroke-miterlimit:10;stroke-dasharray:none;stroke-opacity:1"
       id="path52"
       inkscape:connector-curvature="0" /><path
       d="m 375.973,155.41 c 0,0 15.379,-13.512 35.82,-17.91 19.187,-4.148 32.996,5.332 32.996,5.332 l 24.219,-2.352"
       style="fill:none;stroke:#231f20;stroke-width:14;stroke-linecap:round;stroke-linejoin:round;stroke-miterlimit:10;stroke-dasharray:none;stroke-opacity:1"
       id="path54"
       inkscape:connector-curvature="0" /><path
       d="m 264.797,230.332 c 0,0 -26.672,-13.332 -25,-40"
       style="fill:none;stroke:#231f20;stroke-width:14;stroke-linecap:round;stroke-linejoin:round;stroke-miterlimit:10;stroke-dasharray:none;stroke-opacity:1"
       id="path56"
       inkscape:connector-curvature="0" /><path
       d="m 351.047,596.578 c 0,0 -156.582,-51.894 -218.481,-89.418 -27.769,-16.832 -65.2808,-59.101 -52.773,-129.332 32.504,-182.496 95.949,-248.34 131.254,-287.496 34.391,-38.1601 97.5,-70 131.25,-21.25"
       style="fill:none;stroke:#231f20;stroke-width:14;stroke-linecap:round;stroke-linejoin:round;stroke-miterlimit:10;stroke-dasharray:none;stroke-opacity:1"
       id="path58"
       inkscape:connector-curvature="0" /><path
       d="m 502.777,651.664 c 0,0 44.043,-9.441 59.981,-26.816 9.336,-10.203 20.996,-34.024 24.609,-45.625 3.633,-11.602 -5.058,-110.813 -20.273,-130.371 0,0 -6.153,15.437 -14.239,34.488 l -7.89,15.262 -97.363,-149.524 -97.329,149.524 -5.41,-9.411 c -9.297,-21.632 -16.738,-40.339 -16.75,-40.339 -15.203,19.558 -23.894,118.769 -20.281,130.371 3.633,11.601 15.273,35.422 24.629,45.625 15.937,17.375 59.98,26.816 59.98,26.816 l 110.336,0"
       style="fill:#fee79c;fill-opacity:1;fill-rule:nonzero;stroke:none"
       id="path60-3"
       inkscape:connector-curvature="0" /><path
       d="M 544.965,498.602 447.602,349.078 350.273,498.602"
       style="fill:none;stroke:#231f20;stroke-width:12;stroke-linecap:round;stroke-linejoin:round;stroke-miterlimit:10;stroke-dasharray:none;stroke-opacity:1"
       id="path62"
       inkscape:connector-curvature="0" /><path
       d="m 511.586,580.766 -23.125,-19.59 -39.578,-96.664 -42.922,94.586 -28.75,27.078 16.211,33.742 6.933,55.566 89.161,0 22.07,-94.718"
       style="fill:#fcd0b4;fill-opacity:1;fill-rule:nonzero;stroke:none"
       id="path64"
       inkscape:connector-curvature="0" /><path
       d="m 398.883,643.676 92.5,3.332 6.668,-35 c 0,0 -39.168,-41.66 -103.34,-40 0.852,0.254 -15,10.84 -14.473,9.863 l 18.645,61.805"
       style="fill:#e59686;fill-opacity:1;fill-rule:nonzero;stroke:none"
       id="path66"
       inkscape:connector-curvature="0" /><path
       d="m 392.441,651.664 c 0,0 -44.043,-9.441 -59.98,-26.816 -9.356,-10.203 -20.996,-34.024 -24.629,-45.625 -3.613,-11.602 5.078,-110.813 20.281,-130.371 0,0 39.836,99.941 49.973,105.019"
       style="fill:none;stroke:#231f20;stroke-width:14;stroke-linecap:round;stroke-linejoin:round;stroke-miterlimit:10;stroke-dasharray:none;stroke-opacity:1"
       id="path68"
       inkscape:connector-curvature="0" /><path
       d="m 502.777,651.664 c 0,0 44.043,-9.441 59.981,-26.816 9.336,-10.203 20.996,-34.024 24.609,-45.625 3.633,-11.602 -5.058,-110.813 -20.273,-130.371 0,0 -39.824,99.941 -49.961,105.019"
       style="fill:none;stroke:#231f20;stroke-width:14;stroke-linecap:round;stroke-linejoin:round;stroke-miterlimit:10;stroke-dasharray:none;stroke-opacity:1"
       id="path70"
       inkscape:connector-curvature="0" /><path
       d="m 530.16,611.801 c 0,0 -10.137,-34.746 -42.012,-49.238 L 447.602,455.379 407.051,562.563 c -31.856,14.492 -42,49.238 -42,49.238"
       style="fill:none;stroke:#231f20;stroke-width:14;stroke-linecap:round;stroke-linejoin:round;stroke-miterlimit:10;stroke-dasharray:none;stroke-opacity:1"
       id="path72"
       inkscape:connector-curvature="0" /><path
       d="m 381.012,590.719 c 14.355,33.367 13.183,64.695 13.183,64.695"
       style="fill:none;stroke:#231f20;stroke-width:14;stroke-linecap:round;stroke-linejoin:round;stroke-miterlimit:10;stroke-dasharray:none;stroke-opacity:1"
       id="path74"
       inkscape:connector-curvature="0" /><path
       d="m 495.805,655.414 c 0,0 0.011,-36.141 14.414,-69.512"
       style="fill:none;stroke:#231f20;stroke-width:14;stroke-linecap:round;stroke-linejoin:round;stroke-miterlimit:10;stroke-dasharray:none;stroke-opacity:1"
       id="path76"
       inkscape:connector-curvature="0" /><path
       d="m 51.4688,1021.7 c 0,0 -61.5313,209.96 -37.879,277.55 30.625,87.52 111.1522,149.61 204.7852,187.17 131.59,52.79 261.609,61.13 305.926,-9.16 0,0 74.804,8.17 131.152,-76.19 32.61,-48.81 49.875,-275.66 49.875,-275.66"
       style="fill:#b5b0ae;fill-opacity:1;fill-rule:nonzero;stroke:none"
       id="path78"
       inkscape:connector-curvature="0" /><path
       d="m 19.1641,1264.14 c 30.625,87.5 111.1519,149.59 204.7849,187.15 131.582,52.81 261.614,61.17 305.91,-9.16 0,0 74.825,8.2 131.172,-76.18 11.551,-17.3 21.16,-56.95 28.77,-100.91 -8.281,56.81 -19.766,114.21 -34.348,136.03 -56.348,84.36 -131.152,76.19 -131.152,76.19 -44.317,70.29 -174.336,61.95 -305.926,9.16 -93.633,-37.56 -174.1602,-99.65 -204.7852,-187.17 -10.09761,-28.86 -4.66011,-83.67 4.8829,-137 -5.5977,41.07 -7.1993,79.39 0.6914,101.89"
       style="fill:#e4e0e1;fill-opacity:1;fill-rule:nonzero;stroke:none"
       id="path80"
       inkscape:connector-curvature="0" /><path
       d="m 91.4883,1000.99 c 0,0 -21.7461,32.15 -59.4727,12.61 C -11.0781,991.266 3.85156,903.852 58.8516,843.453 110.074,787.164 143.07,789.84 160.082,792.543"
       style="fill:#fcd0b4;fill-opacity:1;fill-rule:nonzero;stroke:none"
       id="path82"
       inkscape:connector-curvature="0" /><path
       d="m 91.4883,1000.99 c 0,0 -21.7461,32.15 -59.4727,12.61 C -11.0781,991.266 3.85156,903.852 58.8516,843.453 110.074,787.164 143.07,789.84 160.082,792.543"
       style="fill:none;stroke:#231f20;stroke-width:14;stroke-linecap:round;stroke-linejoin:round;stroke-miterlimit:10;stroke-dasharray:none;stroke-opacity:1"
       id="path84"
       inkscape:connector-curvature="0" /><path
       d="m 47.543,904.391 c 15.5664,-29.239 43.8984,-45.957 63.234,-37.344 19.364,8.613 22.411,39.316 6.758,68.621 -15.558,29.25 -43.9061,45.988 -63.2537,37.336 -19.3047,-8.613 -22.3516,-39.348 -6.7383,-68.613"
       style="fill:#e59686;fill-opacity:1;fill-rule:nonzero;stroke:none"
       id="path86"
       inkscape:connector-curvature="0" /><path
       d="m 36.0898,940.66 c 0,0 -2.6875,63.42 54.8243,25.899"
       style="fill:none;stroke:#231f20;stroke-width:14;stroke-linecap:round;stroke-linejoin:round;stroke-miterlimit:10;stroke-dasharray:none;stroke-opacity:1"
       id="path88"
       inkscape:connector-curvature="0" /><path
       d="m 674.293,1093.44 c 0,0 10.711,37.3 52.637,30.39 47.91,-7.89 60.73,-95.63 27.156,-170.084 -31.297,-69.394 -63.504,-77.031 -80.508,-79.738"
       style="fill:#fcd0b4;fill-opacity:1;fill-rule:nonzero;stroke:none"
       id="path90"
       inkscape:connector-curvature="0" /><path
       d="m 674.293,1093.44 c 0,0 10.711,37.3 52.637,30.39 47.91,-7.89 60.73,-95.63 27.156,-170.084 -31.297,-69.394 -63.504,-77.031 -80.508,-79.738"
       style="fill:none;stroke:#231f20;stroke-width:14;stroke-linecap:round;stroke-linejoin:round;stroke-miterlimit:10;stroke-dasharray:none;stroke-opacity:1"
       id="path92"
       inkscape:connector-curvature="0" /><path
       d="m 746.383,1016.48 c -5.762,-32.636 -27.52,-57.304 -48.574,-55.078 -21.094,2.188 -33.489,30.43 -27.668,63.168 5.742,32.61 27.511,57.32 48.574,55.07 21.066,-2.22 33.437,-30.48 27.668,-63.16"
       style="fill:#e59686;fill-opacity:1;fill-rule:nonzero;stroke:none"
       id="path94"
       inkscape:connector-curvature="0" /><path
       d="m 745.629,1053.22 c 0,0 -17.07,61.13 -60.137,7.66"
       style="fill:none;stroke:#231f20;stroke-width:14;stroke-linecap:round;stroke-linejoin:round;stroke-miterlimit:10;stroke-dasharray:none;stroke-opacity:1"
       id="path96"
       inkscape:connector-curvature="0" /><path
       d="M 453.383,603.363 C 373.551,590.699 257.965,641.832 208.422,682.379 154.82,726.227 84,981.82 76.3906,1029.72 c 0,0 -9.6093,53.32 10.2461,103.11 21.9533,55.06 21.0043,86.3 23.1133,125.2 0.93,17.33 68.008,81.99 114.27,84.43 46.277,2.42 238.816,26.83 288.64,76.47 0,0 36.27,-27.37 53.567,-59.01 17.293,-31.64 19.98,-71.73 71.269,-139.71 32.285,-42.77 41.66,-94.88 41.66,-94.88 7.598,-47.89 19.336,-312.853 -18.078,-371.146 C 626.527,700.309 532.438,615.895 452.602,603.238"
       style="fill:#fcd0b4;fill-opacity:1;fill-rule:nonzero;stroke:none"
       id="path98"
       inkscape:connector-curvature="0" /><path
       d="M 453.383,603.363 C 373.551,590.699 257.965,641.832 208.422,682.379 154.82,726.227 84,981.82 76.3906,1029.72 c 0,0 -9.6093,53.32 10.2461,103.11 21.9533,55.06 21.0043,86.3 23.1133,125.2 0.93,17.33 68.008,81.99 114.27,84.43 46.277,2.42 238.816,26.83 288.64,76.47 0,0 36.27,-27.37 53.567,-59.01 17.293,-31.64 19.98,-71.73 71.269,-139.71 32.285,-42.77 41.66,-94.88 41.66,-94.88 7.598,-47.89 19.336,-312.853 -18.078,-371.146 C 626.527,700.309 532.438,615.895 452.602,603.238"
       style="fill:none;stroke:#231f20;stroke-width:14;stroke-linecap:round;stroke-linejoin:round;stroke-miterlimit:10;stroke-dasharray:none;stroke-opacity:1"
       id="path100"
       inkscape:connector-curvature="0" /><path
       d="m 153.051,1099.18 c 0.109,12.37 6.613,49.87 32.082,62.77 40.625,20.57 80.457,16.46 101.738,8.78 21.277,-7.69 9.422,-12.25 0.899,-13.37 -65.559,-8.56 -101.731,-21.65 -120.911,-60.92 -8.035,-16.44 -13.886,-5.27 -13.808,2.74"
       style="fill:#b5b0ae;fill-opacity:1;fill-rule:nonzero;stroke:none"
       id="path102"
       inkscape:connector-curvature="0" /><path
       d="m 153.051,1099.18 c 0.109,12.37 6.613,49.87 32.082,62.77 40.625,20.57 80.457,16.46 101.738,8.78 21.277,-7.69 9.422,-12.25 0.899,-13.37 -65.559,-8.56 -101.731,-21.65 -120.911,-60.92 -8.035,-16.44 -13.886,-5.27 -13.808,2.74 z"
       style="fill:none;stroke:#231f20;stroke-width:10;stroke-linecap:round;stroke-linejoin:round;stroke-miterlimit:10;stroke-dasharray:none;stroke-opacity:1"
       id="path104"
       inkscape:connector-curvature="0" /><path
       d="m 51.4688,1021.7 c 0,0 -61.5313,209.96 -37.879,277.55 30.625,87.52 111.1522,149.61 204.7852,187.17 131.59,52.79 261.609,61.13 305.926,-9.16 0,0 74.804,8.17 131.152,-76.19 32.61,-48.81 49.875,-275.66 49.875,-275.66"
       style="fill:none;stroke:#231f20;stroke-width:14;stroke-linecap:round;stroke-linejoin:round;stroke-miterlimit:10;stroke-dasharray:none;stroke-opacity:1"
       id="path106"
       inkscape:connector-curvature="0" /><path
       d="m 363.238,903.355 c 0,0 42.43,-4.746 81.875,15.43 0,0 -8.273,-29.133 -37.304,-33.75 -29.036,-4.59 -37.375,10.449 -44.571,18.32"
       style="fill:#e59686;fill-opacity:1;fill-rule:nonzero;stroke:none"
       id="path108"
       inkscape:connector-curvature="0" /><path
       d="m 365.543,906.988 c 0,0 39.238,-15.265 74.473,14.266"
       style="fill:none;stroke:#231f20;stroke-width:14;stroke-linecap:round;stroke-linejoin:round;stroke-miterlimit:10;stroke-dasharray:none;stroke-opacity:1"
       id="path110"
       inkscape:connector-curvature="0" /><path
       d="m 278.695,849.859 c 0,0 -34.597,-48.652 -16.015,-141.894"
       style="fill:none;stroke:#231f20;stroke-width:12;stroke-linecap:round;stroke-linejoin:round;stroke-miterlimit:10;stroke-dasharray:none;stroke-opacity:1"
       id="path112"
       inkscape:connector-curvature="0" /><path
       d="m 536.879,890.816 c 0,0 47.961,-35.558 59.141,-129.972"
       style="fill:none;stroke:#231f20;stroke-width:12;stroke-linecap:round;stroke-linejoin:round;stroke-miterlimit:10;stroke-dasharray:none;stroke-opacity:1"
       id="path114"
       inkscape:connector-curvature="0" /><path
       d="m 430.992,1044.25 c 6.082,-38.36 38.692,-65.055 72.832,-59.645 34.168,5.418 56.895,40.895 50.821,79.255 -6.094,38.34 -38.684,65.04 -72.844,59.61 -34.149,-5.41 -56.895,-40.89 -50.809,-79.22"
       style="fill:#ffffff;fill-opacity:1;fill-rule:nonzero;stroke:none"
       id="path116"
       inkscape:connector-curvature="0" /><path
       d="m 553.539,1074.43 c 0,0 -13.582,43.57 -59.773,48.95 -54.063,6.29 -59.524,-45 -59.524,-45 0,0 23.957,23.14 57.285,20.52 31.426,-2.46 62.012,-24.47 62.012,-24.47"
       style="fill:#deedfa;fill-opacity:1;fill-rule:nonzero;stroke:none"
       id="path118"
       inkscape:connector-curvature="0" /><path
       d="m 434.926,1061.63 c -5.664,66.63 89.746,107.53 130.773,-1.17"
       style="fill:none;stroke:#231f20;stroke-width:14;stroke-linecap:round;stroke-linejoin:round;stroke-miterlimit:10;stroke-dasharray:none;stroke-opacity:1"
       id="path120"
       inkscape:connector-curvature="0" /><path
       d="m 556.383,1235.5 c -4.875,-11.38 -25.293,-43.48 -53.781,-45.59 -45.411,-3.33 -80.586,15.79 -97.274,31.1 -16.68,15.26 -3.976,14.92 4.324,12.66 63.789,-17.35 102.227,-19.18 135.032,9.69 13.757,12.07 14.851,-0.5 11.699,-7.86"
       style="fill:#b5b0ae;fill-opacity:1;fill-rule:nonzero;stroke:none"
       id="path122"
       inkscape:connector-curvature="0" /><path
       d="m 556.383,1235.5 c -4.875,-11.38 -25.293,-43.48 -53.781,-45.59 -45.411,-3.33 -80.586,15.79 -97.274,31.1 -16.68,15.26 -3.976,14.92 4.324,12.66 63.789,-17.35 102.227,-19.18 135.032,9.69 13.757,12.07 14.851,-0.5 11.699,-7.86 z"
       style="fill:none;stroke:#231f20;stroke-width:10;stroke-linecap:round;stroke-linejoin:round;stroke-miterlimit:10;stroke-dasharray:none;stroke-opacity:1"
       id="path124"
       inkscape:connector-curvature="0" /><path
       d="m 334.605,1028.97 c 6.083,-38.361 -16.652,-73.837 -50.812,-79.267 -34.16,-5.422 -66.746,21.289 -72.832,59.647 -6.082,38.34 16.641,73.81 50.812,79.23 34.141,5.42 66.747,-21.28 72.832,-59.61"
       style="fill:#ffffff;fill-opacity:1;fill-rule:nonzero;stroke:none"
       id="path126"
       inkscape:connector-curvature="0" /><path
       d="m 208.734,1019.72 c 0,0 -0.574,45.67 41.692,65.07 49.453,22.71 70.527,-24.38 70.527,-24.38 0,0 -29.953,14.59 -60.832,1.79 -29.121,-12.09 -51.387,-42.48 -51.387,-42.48"
       style="fill:#deedfa;fill-opacity:1;fill-rule:nonzero;stroke:none"
       id="path128"
       inkscape:connector-curvature="0" /><path
       d="m 319.566,1023.24 c 4.247,-26.779 -7.003,-50.842 -25.156,-53.732 -18.125,-2.871 -36.262,16.531 -40.519,43.322 -4.239,26.78 7.004,50.84 25.136,53.71 18.145,2.88 36.282,-16.52 40.539,-43.3"
       style="fill:#231f20;fill-opacity:1;fill-rule:nonzero;stroke:none"
       id="path130"
       inkscape:connector-curvature="0" /><path
       d="m 328.949,1044.81 c -15.254,65.13 -118.633,74.48 -124.004,-41.57"
       style="fill:none;stroke:#231f20;stroke-width:14;stroke-linecap:round;stroke-linejoin:round;stroke-miterlimit:10;stroke-dasharray:none;stroke-opacity:1"
       id="path132"
       inkscape:connector-curvature="0" /><path
       d="m 293.746,1041.68 c 0.809,-5.12 5.899,-8.6 11.367,-7.74 5.43,0.86 9.18,5.74 8.367,10.86 -0.82,5.18 -5.898,8.64 -11.335,7.78 -5.461,-0.87 -9.219,-5.73 -8.399,-10.9"
       style="fill:#ffffff;fill-opacity:1;fill-rule:nonzero;stroke:none"
       id="path134"
       inkscape:connector-curvature="0" /><path
       d="m 516.539,1054.49 c 4.238,-26.8 -7.012,-50.84 -25.156,-53.73 -18.137,-2.873 -36.281,16.52 -40.528,43.31 -4.257,26.77 7,50.85 25.137,53.71 18.145,2.88 36.289,-16.53 40.547,-43.29"
       style="fill:#231f20;fill-opacity:1;fill-rule:nonzero;stroke:none"
       id="path136"
       inkscape:connector-curvature="0" /><path
       d="m 490.707,1072.93 c 0.813,-5.12 5.898,-8.62 11.348,-7.76 5.449,0.87 9.199,5.76 8.379,10.89 -0.821,5.15 -5.887,8.62 -11.329,7.75 -5.457,-0.86 -9.218,-5.72 -8.398,-10.88"
       style="fill:#ffffff;fill-opacity:1;fill-rule:nonzero;stroke:none"
       id="path138"
       inkscape:connector-curvature="0" /><path
       d="m 244.156,924.117 c 1.992,-12.551 -18.73,-26.262 -46.289,-30.637 -27.59,-4.382 -51.562,2.258 -53.554,14.805 -1.985,12.531 18.75,26.231 46.335,30.598 27.559,4.375 51.524,-2.227 53.508,-14.766"
       style="fill:#f6807f;fill-opacity:1;fill-rule:nonzero;stroke:none"
       id="path140"
       inkscape:connector-curvature="0" /><path
       d="m 652.914,988.969 c 1.992,-12.567 -18.73,-26.27 -46.297,-30.645 -27.59,-4.383 -51.554,2.239 -53.554,14.797 -1.973,12.539 18.757,26.231 46.347,30.609 27.559,4.37 51.524,-2.23 53.504,-14.761"
       style="fill:#f6807f;fill-opacity:1;fill-rule:nonzero;stroke:none"
       id="path142"
       inkscape:connector-curvature="0" /><path
       d="m 164.773,809.195 c -16.804,15.535 -44.5,18.692 -27.886,-16.3 16.597,-34.969 43.758,-145.79 47.105,-164.559 3.352,-18.801 107.192,-92.922 107.192,-92.922 l 0.168,-122.586 73.75,43.75 -15.93,104.199 c -3.867,38.289 -22.336,62.977 -47.473,78.368 -25.144,15.39 -68.769,35.089 -68.769,35.089 0,0 -25.418,95.411 -68.157,134.961"
       style="fill:#fcd0b4;fill-opacity:1;fill-rule:nonzero;stroke:none"
       id="path144"
       inkscape:connector-curvature="0" /><path
       d="m 164.773,809.195 c -16.804,15.535 -44.5,18.692 -27.886,-16.3 16.597,-34.969 43.758,-145.79 47.105,-164.559 3.352,-18.801 107.192,-92.922 107.192,-92.922 l 0.168,-122.586 73.75,43.75 -15.93,104.199 c -3.867,38.289 -22.336,62.977 -47.473,78.368 -25.144,15.39 -68.769,35.089 -68.769,35.089 0,0 -25.418,95.411 -68.157,134.961 z"
       style="fill:none;stroke:#231f20;stroke-width:14;stroke-linecap:round;stroke-linejoin:round;stroke-miterlimit:10;stroke-dasharray:none;stroke-opacity:1"
       id="path146"
       inkscape:connector-curvature="0" /><path
       d="m 234.859,153.629 c 5.282,106.242 17.743,261.281 17.743,261.281 0,0 88.566,40.84 114.503,66.762 C 374.527,380.82 386.91,257.281 388.707,217.719 391.305,160.699 380.102,89.082 351.352,57.832 332.488,37.332 295.938,35.75 266.77,50.75"
       style="fill:#bfb290;fill-opacity:1;fill-rule:nonzero;stroke:none"
       id="path148"
       inkscape:connector-curvature="0" /><path
       d="m 234.859,153.629 c 5.282,106.242 17.743,261.281 17.743,261.281 0,0 88.566,40.84 114.503,66.762 C 374.527,380.82 386.91,257.281 388.707,217.719 391.305,160.699 380.102,89.082 351.352,57.832 332.488,37.332 295.938,35.75 266.77,50.75"
       style="fill:none;stroke:#231f20;stroke-width:14;stroke-linecap:round;stroke-linejoin:round;stroke-miterlimit:10;stroke-dasharray:none;stroke-opacity:1"
       id="path150"
       inkscape:connector-curvature="0" /><path
       d="m 406.121,692.242 c 0,0 33.688,43.367 76.715,14.91"
       style="fill:none;stroke:#231f20;stroke-width:14;stroke-linecap:round;stroke-linejoin:round;stroke-miterlimit:10;stroke-dasharray:none;stroke-opacity:1"
       id="path152"
       inkscape:connector-curvature="0" /></g></svg>